<svg width="100" height="100" viewBox="0 0 100 100" fill="none" xmlns="http://www.w3.org/2000/svg">
<circle cx="50" cy="50" r="49.5" fill="#0077B6" stroke="#0077B6"/>
<path d="M50 49.3237C47.25 49.3237 45 48.4219 43.25 46.6184C41.5 44.8148 40.625 42.496 40.625 39.6618C40.625 36.8277 41.5 34.5089 43.25 32.7053C45 30.9018 47.25 30 50 30C52.75 30 55 30.9018 56.75 32.7053C58.5 34.5089 59.375 36.8277 59.375 39.6618C59.375 42.496 58.5 44.8148 56.75 46.6184C55 48.4219 52.75 49.3237 50 49.3237ZM30 70V63.9452C30 62.3135 30.3958 60.9179 31.1875 59.7585C31.9792 58.599 33 57.7187 34.25 57.1176C37.0417 55.8293 39.7188 54.8631 42.2812 54.219C44.8438 53.5749 47.4167 53.2528 50 53.2528C52.5833 53.2528 55.1458 53.5856 57.6875 54.2512C60.2292 54.9168 62.8942 55.8764 65.6826 57.13C66.9868 57.7366 68.0324 58.6162 68.8194 59.7688C69.6065 60.9213 70 62.3135 70 63.9452V70H30ZM33.75 66.1353H66.25V63.9452C66.25 63.2582 66.0521 62.6033 65.6562 61.9807C65.2604 61.358 64.7708 60.8964 64.1875 60.5958C61.5208 59.2646 59.0833 58.3521 56.875 57.8583C54.6667 57.3645 52.375 57.1176 50 57.1176C47.625 57.1176 45.3125 57.3645 43.0625 57.8583C40.8125 58.3521 38.375 59.2646 35.75 60.5958C35.1667 60.8964 34.6875 61.358 34.3125 61.9807C33.9375 62.6033 33.75 63.2582 33.75 63.9452V66.1353ZM50 45.4589C51.625 45.4589 52.9688 44.9114 54.0312 43.8164C55.0938 42.7214 55.625 41.3366 55.625 39.6618C55.625 37.9871 55.0938 36.6023 54.0312 35.5072C52.9688 34.4122 51.625 33.8647 50 33.8647C48.375 33.8647 47.0312 34.4122 45.9688 35.5072C44.9062 36.6023 44.375 37.9871 44.375 39.6618C44.375 41.3366 44.9062 42.7214 45.9688 43.8164C47.0312 44.9114 48.375 45.4589 50 45.4589Z" fill="white"/>
</svg>
