<svg width="22" height="22" viewBox="0 0 22 22" fill="none" xmlns="http://www.w3.org/2000/svg">
<g clip-path="url(#clip0_2529_115)">
<mask id="mask0_2529_115" style="mask-type:luminance" maskUnits="userSpaceOnUse" x="0" y="0" width="22" height="22">
<path fill-rule="evenodd" clip-rule="evenodd" d="M0 0H22V22H0V0Z" fill="white"/>
</mask>
<g mask="url(#mask0_2529_115)">
<path fill-rule="evenodd" clip-rule="evenodd" d="M9.16329 16.4967C13.2134 16.4967 16.4967 13.2134 16.4967 9.16333C16.4967 5.11324 13.2134 1.83 9.16329 1.83C5.1132 1.83 1.82996 5.11324 1.82996 9.16333C1.82996 13.2134 5.1132 16.4967 9.16329 16.4967Z" fill="#0077B6"/>
<path fill-rule="evenodd" clip-rule="evenodd" d="M19.9016 19.9017C19.8164 19.9876 19.715 20.0558 19.6033 20.1023C19.4916 20.1489 19.3718 20.1728 19.2508 20.1728C19.1298 20.1728 19.0099 20.1489 18.8982 20.1023C18.7865 20.0558 18.6852 19.9876 18.5999 19.9017L14.3099 15.5842C14.7816 15.2091 15.2091 14.7816 15.5841 14.31L19.8741 18.6C19.9618 18.6834 20.0322 18.7833 20.0811 18.894C20.13 19.0048 20.1565 19.1241 20.1591 19.2451C20.1616 19.3661 20.1402 19.4864 20.096 19.5991C20.0518 19.7118 19.9857 19.8146 19.9016 19.9017Z" fill="#0077B6"/>
</g>
</g>
<defs>
<clipPath id="clip0_2529_115">
<rect width="22" height="22" fill="white"/>
</clipPath>
</defs>
</svg>
